<?xml version="1.0" encoding="UTF-8" standalone="no"?>
<!DOCTYPE svg PUBLIC "-//W3C//DTD SVG 1.1//EN" "http://www.w3.org/Graphics/SVG/1.1/DTD/svg11.dtd">
<svg version="1.1" xmlns="http://www.w3.org/2000/svg" xmlns:xlink="http://www.w3.org/1999/xlink" preserveAspectRatio="xMidYMid meet" viewBox="22.921568627450952 17.039215686274474 89.29411764705887 91.25490196078431" width="85.29" height="87.25"><defs><path d="M71.96 33.73C71.96 42.38 65.59 49.41 57.75 49.41C49.9 49.41 43.53 42.38 43.53 33.73C43.53 25.07 49.9 18.04 57.75 18.04C65.59 18.04 71.96 25.07 71.96 33.73Z" id="a6MjrnPvX"></path><path d="M109.22 88.14C109.22 97.61 102.41 105.29 94.02 105.29C85.63 105.29 78.82 97.61 78.82 88.14C78.82 78.67 85.63 70.98 94.02 70.98C102.41 70.98 109.22 78.67 109.22 88.14Z" id="c55yA10iUQ"></path><path d="M54.31 80.24C54.31 89.2 47.5 96.47 39.12 96.47C30.73 96.47 23.92 89.2 23.92 80.24C23.92 71.27 30.73 64 39.12 64C47.5 64 54.31 71.27 54.31 80.24Z" id="b7vYumI3J"></path></defs><g><g><use xlink:href="#a6MjrnPvX" opacity="1" fill="#82feb2" fill-opacity="1"></use></g><g><use xlink:href="#c55yA10iUQ" opacity="1" fill="#3c40f2" fill-opacity="1"></use></g><g><use xlink:href="#b7vYumI3J" opacity="1" fill="#82dcfe" fill-opacity="1"></use></g></g></svg>